<?xml version="1.0" encoding="UTF-8"?><svg id="Calque_1" xmlns="http://www.w3.org/2000/svg" xmlns:xlink="http://www.w3.org/1999/xlink" viewBox="0 0 500 500"><defs><style>.cls-1{fill:#e7000e;}.cls-2{clip-path:url(#clippath-1);}.cls-3{clip-path:url(#clippath);}.cls-4{fill:none;}.cls-5{fill:#12120d;}.cls-6{fill:#ffed00;}.cls-7{fill:#1d1d1b;}</style><clipPath id="clippath"><rect class="cls-4" x="251" y="187" width="236.56" height="50.59"/></clipPath><clipPath id="clippath-1"><rect class="cls-4" x="251" y="187" width="236.56" height="50.59"/></clipPath></defs><g><path class="cls-7" d="M30.34,124.14l.88,32H13.46v-56.64h24.88l10.24,30.48h.4l8.88-30.48h25.68v56.64h-18.48l.56-31.84-.48-.08-10.56,31.92h-13.44l-10.4-32h-.4Z"/><path class="cls-7" d="M116.98,97.9c17.92,0,31.52,11.44,31.52,29.6s-13.6,30.24-31.52,30.24-31.44-12.08-31.44-30.24,13.52-29.6,31.44-29.6Zm0,42.24c6.4,0,11.2-5.28,11.2-12.64s-4.8-12.16-11.2-12.16-11.2,4.8-11.2,12.16,4.72,12.64,11.2,12.64Z"/><path class="cls-7" d="M150.5,99.5h24.4c11.2,0,22.88,4,22.88,18.4,0,6.88-3.6,12.4-9.92,15.28l14.4,22.96h-21.92l-10.88-20.24h-.56v20.24h-18.4v-56.64Zm18.24,23.92h3.76c2.64,0,6.64-.64,6.64-4.72s-3.44-4.4-5.84-4.4h-4.56v9.12Z"/><path class="cls-7" d="M220.58,137.9v18.24h-18.96v-56.64h24.32c11.52,0,23.2,4.4,23.2,19.04s-11.44,19.36-23.2,19.36h-5.36Zm0-23.6v9.12h4c2.88,0,5.76-1.36,5.76-4.72,0-3.6-2.88-4.4-5.76-4.4h-4Z"/><path class="cls-7" d="M284.9,134.62h-15.52v21.52h-19.04v-56.64h18.96v19.2h15.52v-19.2h19.12v56.64h-19.04v-21.52Z"/><path class="cls-7" d="M308.5,99.5h38.96v15.84h-21.04v4.88h19.76v14.8h-19.76v5.28h22.4v15.84h-40.32v-56.64Z"/><path class="cls-7" d="M349.94,133.9v-34.4h19.04v32.32c0,5.36,2.72,8.64,7.52,8.64s7.52-3.28,7.52-8.64v-32.32h18.96v34.4c0,13.44-9.12,23.84-26.8,23.84s-26.24-10.4-26.24-23.84Z"/><path class="cls-7" d="M401.46,149.18l11.6-12.64c2.64,2.88,7.52,5.52,12.16,5.52,2.16,0,4.24-.64,4.24-2.64s-2-2.88-10-5.52c-7.68-2.56-14.64-6.64-14.64-16.56,0-14.08,12.64-19.44,23.76-19.44,7.44,0,15.76,3.04,21.6,8.4l-11.84,12.08c-2.56-3.2-6.8-4.88-9.76-4.88-2.8,0-4.64,.72-4.64,2.56,0,1.68,1.68,2.24,5.6,3.52,8.16,2.64,19.12,6.24,19.12,17.92,0,13.68-11.92,20.24-23.36,20.24-9.12,0-18.08-3.44-23.84-8.56Z"/><path class="cls-7" d="M468.9,98.62c10,0,18.16,8.08,18.16,18.16s-8.16,18-18.16,18-18.32-7.92-18.32-18,8.24-18.16,18.32-18.16Zm0,33.52c8.48,0,15.28-6.96,15.28-15.36s-6.8-15.36-15.28-15.36-15.44,6.88-15.44,15.36,6.88,15.36,15.44,15.36Zm3.04-5.2l-3.52-7.52h-1.28v7.52h-7.04v-21.28h9.12c4.56,0,9.68,1.52,9.68,6.88,0,2.8-1.36,4.96-3.84,5.92l4.88,8.48h-8Zm-2.72-12.48c1.28,0,2.24-.8,2.24-1.84,0-.88-1.12-1.44-2.24-1.44h-2.08v3.28h2.08Z"/></g><g class="cls-3"><rect class="cls-6" x="251" y="187" width="236.56" height="50.59"/><polygon class="cls-1" points="267.88 212.42 269.69 214.64 284.9 214.64 284.9 215.99 270.75 215.99 274.56 220.72 290.6 220.72 290.6 209.98 277.24 209.98 278.35 208.63 290.6 208.63 290.6 203.85 274.6 203.85 267.88 212.42"/><polygon class="cls-1" points="297.68 208.63 310.92 208.63 310.92 203.85 291.96 203.85 291.96 214.64 305.18 214.64 305.18 215.99 291.96 215.99 291.96 220.72 310.94 220.72 310.94 209.98 297.68 209.98 297.68 208.63"/><rect class="cls-1" x="312.29" y="203.85" width="6.76" height="16.87"/><rect class="cls-5" x="390.49" y="203.81" width="4.47" height="3.19"/><rect class="cls-5" x="407.29" y="203.81" width="4.47" height="3.19"/><polygon class="cls-5" points="382.96 210.12 375.77 210.12 375.77 203.81 369.29 203.81 369.29 220.72 375.77 220.72 375.77 214.19 382.96 214.19 382.96 220.72 389.44 220.72 389.44 203.81 382.96 203.81 382.96 210.12"/><polygon class="cls-5" points="412.77 220.72 419.32 220.72 419.32 214.2 428.52 214.2 428.52 210.23 419.32 210.23 419.32 208.15 429.75 208.15 429.75 203.81 412.77 203.81 412.77 220.72"/><polygon class="cls-5" points="436.95 214.2 446.72 214.2 446.72 210.23 436.95 210.23 436.95 208.15 449.3 208.15 449.3 203.81 430.45 203.81 430.45 220.71 449.65 220.71 449.65 216.36 436.95 216.36 436.95 214.2"/><path class="cls-5" d="M396.86,203.81l-6.78,16.91h6.78l.62-1.63h6.96l.69,1.62h7.04l-6.81-16.9h-8.49Zm2.05,11.33l2.09-5.39,2.08,5.39h-4.17Z"/><g class="cls-2"><path class="cls-5" d="M361.71,213.84s-.03,.44-.11,.7c-.07,.26-.13,.4-.26,.63-.12,.21-.2,.33-.35,.52-.21,.26-.36,.38-.63,.57-.22,.16-.36,.24-.61,.35-.25,.11-.4,.15-.67,.21-.37,.08-.59,.09-.97,.09-.31,0-.48,0-.79-.05-.93-.15-1.79-.77-2.12-1.13-.22-.25-.46-.61-.6-.88-.28-.52-.45-1.03-.56-1.58-.09-.47-.12-.86-.12-1.41,0-.4,.01-.62,.07-1.01,.05-.37,.09-.58,.21-.93,.13-.38,.22-.6,.43-.95,.15-.25,.24-.4,.44-.62,.27-.3,.45-.45,.8-.65,.34-.2,.57-.27,.95-.36,.35-.09,.55-.1,.91-.11,.34,0,.54,0,.88,.06,.35,.05,.55,.1,.88,.23,.4,.16,.62,.29,.94,.57,.21,.18,.31,.3,.48,.52,.19,.25,.3,.4,.43,.69,.1,.23,.16,.37,.2,.62,.03,.17,.04,.43,.04,.43h6.98s0-.61-.08-1c-.17-.94-.36-1.41-.83-2.2-.27-.45-.41-.65-.79-1.08-.38-.42-.56-.62-1.22-1.06-.71-.48-1.15-.66-1.94-.95-.59-.22-.94-.3-1.55-.44-.6-.14-.95-.2-1.57-.28-.81-.11-1.28-.13-2.09-.14-.34,0-.54,0-.88,0-.59,.01-.92,.03-1.51,.08-.65,.06-1.01,.11-1.65,.23-.52,.1-.81,.17-1.32,.31-.43,.13-.67,.2-1.08,.37-.42,.17-.65,.28-1.04,.5-.46,.25-.72,.4-1.13,.72-.4,.31-.62,.51-.96,.89-.29,.33-.44,.53-.67,.91-.29,.48-.42,.77-.61,1.29-.14,.39-.2,.62-.29,1.03-.1,.45-.15,.71-.2,1.17-.06,.51-.06,.8-.06,1.32,0,.57,.03,.89,.11,1.46,.15,1.1,.35,1.89,.76,2.75,.3,.65,.57,1.06,1.02,1.63,.26,.34,1.04,1.09,1.79,1.55,.86,.54,1.39,.8,2.36,1.13,.89,.31,1.54,.43,2.34,.54,.81,.11,1.3,.14,2.13,.15,.9,.01,1.42,0,2.31-.11,1.17-.14,1.85-.25,2.96-.64,.44-.16,.69-.26,1.11-.46,.9-.44,1.4-.76,2.16-1.42,.32-.27,.49-.44,.78-.74,.31-.34,.47-.54,.73-.91,.24-.35,.39-.55,.56-.94,.26-.58,.35-.89,.46-1.44,.08-.41,.07-.73,.07-.73h-7Z"/><path class="cls-5" d="M470.24,219.72c-.06-.23-.09-.59-.09-.59l-.05-3.06c-.02-.56,.03-.58-.04-.95-.05-.29-.09-.46-.21-.72-.15-.35-.27-.54-.53-.82-.33-.34-.59-.46-1.03-.64-.19-.08-.5-.16-.5-.16,0,0,.35-.12,.55-.24,.75-.46,1.11-.72,1.57-1.4,.25-.37,.36-.6,.51-1.02,.12-.36,.16-.59,.21-.97,.05-.4,.07-.64,.04-1.04-.05-.76-.14-1.21-.49-1.88-.24-.45-.42-.69-.78-1.06-.67-.67-1.47-1.03-2.12-1.2-.75-.19-1.27-.17-1.62-.17h-15.25v16.9h6.44v-5.94h5.4c.27,0,.44,.04,.68,.17,.14,.08,.21,.13,.32,.23,.15,.14,.23,.23,.34,.41,.13,.23,.18,.45,.19,.66,.1,1.62,.05,1.95,.05,1.95,0,0-.05,.75,.15,1.33,.09,.25,.15,.51,.32,.79,.1,.16,.29,.39,.29,.39h6.11s-.34-.58-.45-.99m-5.9-9.82c-.06,.18-.12,.29-.25,.43-.11,.12-.2,.18-.35,.25-.21,.1-.36,.13-.59,.13h-6.29s0-2.54,0-2.54h6.29c.24,0,.38,.03,.59,.13,.15,.07,.24,.13,.35,.25,.13,.14,.19,.25,.25,.43,.05,.17,.05,.28,.05,.46s0,.29-.05,.46"/><path class="cls-5" d="M346.47,213.94c-.17-.55-.33-.85-.65-1.33-.21-.31-.34-.49-.6-.75-.27-.28-.44-.43-.77-.64-.37-.23-.6-.32-1.01-.46-.4-.15-.64-.2-1.06-.29-.58-.14-.92-.18-1.5-.29-1.81-.34-2.84-.47-4.65-.8-.98-.18-1.32-.19-2.5-.47-.26-.06-.3-.09-.65-.25-.16-.08-.25-.16-.33-.32-.07-.16-.06-.28-.03-.46,.09-.44,.63-.65,.9-.73,.34-.09,.41-.09,.67-.12,.57-.07,.9-.05,1.47,.03,.4,.05,.64,.07,1.02,.2,.21,.07,.33,.1,.52,.21,.22,.14,.35,.24,.49,.46,.13,.19,.17,.32,.23,.55,.04,.17,.05,.44,.05,.44h7.91s-.01-.17-.02-.28c-.05-.48-.12-.76-.29-1.22-.1-.28-.17-.43-.31-.69-.24-.44-.43-.66-.78-1.02-.21-.22-.34-.33-.58-.52-.35-.28-.59-.43-.96-.63-.69-.36-.71-.38-1.54-.61-.73-.2-.89-.2-1.46-.3-.82-.14-1.3-.19-2.13-.27-.9-.08-1.42-.1-2.32-.1-.98,0-1.53,0-2.5,.08-.63,.05-.98,.08-1.6,.18-.56,.09-.95,.17-1.42,.3-.61,.18-.72,.19-1.16,.39-.34,.15-.53,.25-.84,.45-.53,.34-.73,.48-1.24,1.05-.22,.25-.27,.38-.41,.64-.32,.6-.39,.91-.49,1.66-.05,.37-.02,.75,.05,1.21,.12,.72,.26,1.14,.65,1.76,.3,.48,.52,.74,.95,1.11,.4,.34,.67,.5,1.14,.73,1.02,.48,1.45,.56,2.42,.78,1.12,.25,1.41,.28,2.31,.46,1.58,.3,2.11,.38,4.06,.75,.69,.13,.86,.13,1.2,.28,.13,.06,.32,.19,.42,.39,.11,.22,.11,.41,.04,.64-.07,.21-.16,.33-.33,.46-.38,.26-.58,.31-.98,.43-.4,.11-.64,.12-1.05,.13-.5,.02-.8,.01-1.28-.12-.27-.07-.42-.12-.67-.25-.22-.12-.34-.19-.53-.36-.16-.14-.24-.22-.36-.39-.25-.34-.22-.53-.22-.53h-8.2s.02,.49,.09,.8c.06,.26,.11,.41,.21,.66,.17,.44,.3,.68,.58,1.05,.23,.3,.39,.44,.67,.7,.48,.45,.78,.67,1.36,.99,.53,.3,.85,.41,1.42,.61,.84,.29,1.34,.38,2.22,.53,1.2,.21,1.9,.24,3.12,.29,1,.04,1.56,.04,2.56,0,.6-.03,.93-.03,1.53-.1,.72-.07,1.13-.12,1.84-.27,.62-.13,.97-.22,1.57-.43,.47-.17,.74-.27,1.18-.52,.34-.19,.53-.3,.83-.54,.3-.24,.45-.39,.7-.67,.24-.27,.36-.43,.55-.73,.13-.22,.21-.34,.31-.57,.16-.35,.21-.57,.29-.94,.04-.19,.07-.3,.08-.5,.04-.34,.01-.54-.02-.89-.04-.4-.07-.63-.19-1.02"/></g></g><g><path class="cls-5" d="M197.76,223.15v3.69h-3.17v-35.26h3.17v17.21h.09c1.87-2.85,5.13-4.34,8.26-4.34,6.81,0,11.29,5.04,11.29,11.48s-4.48,11.47-11.29,11.47c-3.12,0-6.39-1.49-8.26-4.24h-.09Zm8.02-16.05c-4.9,0-8.4,3.83-8.4,8.82s3.5,8.77,8.4,8.77c5.27,0,8.26-3.92,8.26-8.77s-2.99-8.82-8.26-8.82Z"/><path class="cls-5" d="M228.22,223.43h.09l6.76-18.43h3.45l-10.87,27.47c-1.31,3.36-3.08,5.55-6.86,5.55-.93,0-1.91-.09-2.85-.28l.33-2.89c.7,.23,1.49,.37,2.33,.37,2.15,0,3.27-1.4,4.2-3.87l1.77-4.57-9.33-21.78h3.55l7.42,18.43Z"/></g><rect class="cls-4" width="500" height="500"/></svg>