<?xml version="1.0" encoding="UTF-8"?><svg xmlns="http://www.w3.org/2000/svg" viewBox="0 0 198.43 42.43"><defs><style>.cls-1{fill:#e7000e;}.cls-2{fill:#12120d;}.cls-3{fill:#ffed00;}</style></defs><g id="Fond"><rect class="cls-3" width="198.43" height="42.43"/></g><g id="Logo"><polygon class="cls-1" points="14.16 21.32 15.68 23.18 28.43 23.18 28.43 24.32 16.57 24.32 19.76 28.28 33.22 28.28 33.22 19.27 22.01 19.27 22.94 18.14 33.22 18.14 33.22 14.14 19.79 14.14 14.16 21.32"/><polygon class="cls-1" points="39.16 18.14 50.26 18.14 50.26 14.14 34.36 14.14 34.36 23.18 45.44 23.18 45.44 24.32 34.36 24.32 34.36 28.28 50.28 28.28 50.28 19.27 39.16 19.27 39.16 18.14"/><rect class="cls-1" x="51.41" y="14.14" width="5.67" height="14.15"/><rect class="cls-2" x="117.01" y="14.1" width="3.75" height="2.67"/><rect class="cls-2" x="131.1" y="14.1" width="3.75" height="2.67"/><polygon class="cls-2" points="110.69 19.39 104.66 19.39 104.66 14.1 99.22 14.1 99.22 28.28 104.66 28.28 104.66 22.81 110.69 22.81 110.69 28.28 116.12 28.28 116.12 14.1 110.69 14.1 110.69 19.39"/><polygon class="cls-2" points="135.69 28.28 141.19 28.28 141.19 22.82 148.9 22.82 148.9 19.49 141.19 19.49 141.19 17.74 149.93 17.74 149.93 14.1 135.69 14.1 135.69 28.28"/><polygon class="cls-2" points="155.98 22.81 164.17 22.81 164.17 19.48 155.98 19.48 155.98 17.74 166.33 17.74 166.33 14.1 150.52 14.1 150.52 28.28 166.63 28.28 166.63 24.63 155.98 24.63 155.98 22.81"/><path class="cls-2" d="M122.35,14.1l-5.68,14.18h5.68l.52-1.37h5.84l.58,1.36h5.9l-5.71-14.17h-7.12Zm1.72,9.5l1.75-4.53,1.75,4.53h-3.5Z"/><path class="cls-2" d="M92.86,22.52s-.03,.37-.09,.59c-.06,.22-.11,.33-.22,.53-.1,.18-.16,.28-.3,.43-.18,.22-.3,.32-.53,.48-.19,.13-.3,.2-.51,.29-.21,.09-.34,.12-.56,.17-.31,.07-.49,.07-.81,.08-.26,0-.41,0-.66-.04-.78-.13-1.5-.64-1.78-.95-.18-.21-.38-.51-.5-.73-.23-.44-.37-.86-.47-1.33-.08-.39-.1-.72-.1-1.18,0-.33,.01-.52,.06-.85,.05-.31,.07-.48,.17-.78,.11-.32,.19-.5,.36-.79,.13-.21,.2-.33,.37-.52,.23-.25,.38-.38,.67-.54,.29-.17,.47-.23,.8-.3,.29-.07,.46-.09,.77-.09,.29,0,.45,0,.74,.05,.29,.05,.46,.08,.74,.19,.33,.14,.52,.24,.79,.48,.17,.15,.26,.26,.4,.44,.16,.21,.25,.34,.36,.58,.09,.19,.13,.31,.17,.52,.03,.14,.03,.36,.03,.36h5.85s0-.51-.07-.84c-.14-.79-.31-1.18-.7-1.85-.22-.38-.34-.55-.67-.91-.32-.35-.47-.52-1.03-.89-.59-.4-.97-.55-1.63-.8-.49-.18-.79-.25-1.3-.37-.51-.12-.8-.17-1.32-.24-.68-.09-1.07-.11-1.76-.12-.29,0-.45,0-.74,0-.49,.01-.77,.02-1.27,.07-.54,.05-.85,.09-1.39,.2-.44,.08-.68,.14-1.11,.27-.36,.1-.56,.16-.91,.31-.35,.14-.54,.24-.87,.42-.38,.21-.6,.34-.95,.61-.34,.26-.52,.43-.8,.75-.24,.28-.37,.45-.56,.76-.24,.4-.36,.64-.51,1.08-.12,.33-.17,.52-.25,.86-.09,.38-.13,.6-.17,.98-.05,.43-.05,.67-.05,1.11,0,.48,.02,.75,.09,1.22,.13,.92,.3,1.58,.63,2.3,.26,.55,.48,.89,.85,1.37,.22,.28,.87,.91,1.5,1.3,.72,.45,1.17,.67,1.98,.95,.74,.26,1.29,.36,1.97,.45,.68,.09,1.09,.12,1.78,.13,.76,0,1.19,0,1.94-.09,.98-.12,1.55-.21,2.48-.54,.37-.13,.58-.22,.93-.39,.76-.37,1.17-.64,1.81-1.19,.27-.23,.41-.36,.65-.62,.26-.28,.4-.45,.61-.77,.2-.29,.32-.46,.47-.79,.22-.49,.3-.75,.39-1.21,.07-.35,.06-.61,.06-.61h-5.87Z"/><path class="cls-2" d="M183.9,27.44c-.05-.19-.08-.5-.08-.5l-.05-2.56c-.02-.47,.02-.49-.03-.79-.04-.24-.08-.38-.17-.61-.13-.29-.23-.46-.45-.68-.28-.28-.5-.39-.86-.53-.16-.06-.42-.13-.42-.13,0,0,.29-.1,.46-.2,.63-.39,.93-.6,1.32-1.17,.21-.31,.3-.5,.42-.85,.1-.31,.13-.49,.17-.81,.04-.34,.06-.54,.04-.87-.04-.63-.11-1.02-.41-1.58-.2-.38-.35-.58-.65-.89-.56-.57-1.23-.87-1.78-1.01-.63-.16-1.07-.14-1.36-.14h-12.79v14.17h5.4v-4.98h4.53c.23,0,.37,.03,.57,.14,.11,.06,.17,.11,.27,.2,.13,.12,.2,.19,.28,.34,.11,.2,.15,.38,.16,.55,.09,1.36,.04,1.64,.04,1.64,0,0-.04,.63,.13,1.12,.07,.21,.13,.42,.27,.66,.08,.14,.24,.33,.24,.33h5.12s-.29-.49-.37-.83Zm-4.95-8.24c-.05,.15-.1,.24-.21,.36-.1,.1-.17,.15-.29,.21-.18,.09-.3,.11-.5,.11h-5.28s0-2.13,0-2.13h5.28c.2,0,.32,.02,.5,.11,.13,.06,.2,.11,.29,.21,.11,.12,.16,.21,.21,.36,.05,.14,.05,.23,.05,.38s0,.24-.05,.38Z"/><path class="cls-2" d="M80.08,22.59c-.14-.46-.27-.71-.54-1.11-.18-.26-.28-.41-.5-.63-.23-.24-.37-.36-.65-.54-.31-.2-.51-.27-.85-.39-.34-.12-.54-.16-.89-.25-.49-.12-.77-.15-1.26-.24-1.52-.28-2.38-.4-3.9-.67-.82-.15-1.11-.16-2.1-.39-.22-.05-.25-.07-.54-.21-.14-.06-.21-.13-.28-.27-.06-.14-.05-.24-.02-.39,.07-.37,.53-.55,.76-.61,.29-.08,.34-.07,.56-.1,.48-.05,.76-.04,1.23,.02,.34,.04,.53,.06,.86,.17,.17,.06,.28,.08,.43,.18,.19,.12,.29,.2,.41,.38,.11,.16,.15,.27,.19,.46,.03,.14,.04,.36,.04,.36h6.63s0-.14-.02-.24c-.05-.4-.1-.63-.25-1.02-.09-.23-.14-.36-.26-.58-.2-.37-.36-.55-.65-.85-.18-.18-.29-.28-.48-.43-.3-.23-.5-.36-.81-.53-.58-.3-.6-.32-1.29-.51-.61-.17-.74-.17-1.22-.25-.69-.12-1.09-.16-1.79-.22-.76-.06-1.19-.08-1.95-.09-.82,0-1.28,0-2.1,.06-.53,.04-.82,.07-1.35,.15-.47,.08-.8,.14-1.19,.26-.51,.15-.61,.16-.97,.33-.28,.13-.44,.21-.7,.38-.45,.29-.61,.4-1.04,.88-.18,.21-.23,.32-.35,.54-.27,.5-.32,.77-.41,1.4-.04,.31-.02,.63,.05,1.02,.1,.61,.22,.96,.54,1.48,.25,.41,.44,.62,.8,.93,.34,.29,.56,.42,.96,.61,.86,.4,1.22,.47,2.03,.65,.94,.21,1.18,.24,1.93,.38,1.33,.26,1.77,.32,3.4,.63,.58,.11,.72,.11,1,.23,.11,.05,.27,.16,.36,.33,.09,.19,.09,.34,.03,.54-.06,.17-.13,.28-.28,.38-.32,.22-.48,.26-.82,.36-.33,.09-.53,.1-.88,.11-.42,.01-.67,.01-1.07-.1-.22-.06-.35-.1-.56-.21-.19-.1-.29-.16-.45-.3-.13-.11-.2-.19-.3-.32-.21-.29-.19-.44-.19-.44h-6.88s.02,.41,.07,.67c.05,.22,.09,.34,.18,.55,.15,.37,.25,.57,.49,.88,.19,.25,.33,.37,.56,.59,.4,.37,.66,.56,1.14,.83,.44,.25,.72,.34,1.19,.51,.7,.25,1.13,.32,1.86,.44,1.01,.18,1.59,.2,2.61,.24,.84,.03,1.31,.03,2.15,0,.5-.02,.78-.03,1.28-.08,.61-.06,.95-.1,1.55-.23,.52-.11,.82-.18,1.32-.36,.4-.15,.62-.23,.99-.43,.28-.16,.44-.25,.7-.46,.25-.2,.38-.32,.59-.56,.2-.23,.3-.36,.46-.61,.11-.18,.17-.29,.26-.48,.13-.29,.18-.47,.25-.79,.04-.16,.06-.25,.07-.42,.03-.29,.01-.46-.02-.75-.03-.34-.06-.53-.16-.86Z"/></g></svg>